<?xml version="1.0" encoding="utf-8"?>
<!-- Generator: Adobe Illustrator 23.0.3, SVG Export Plug-In . SVG Version: 6.00 Build 0)  -->
<svg version="1.1" id="Layer_1" xmlns="http://www.w3.org/2000/svg" xmlns:xlink="http://www.w3.org/1999/xlink" x="0px" y="0px"
	 viewBox="0 0 30 30" style="enable-background:new 0 0 30 30;" xml:space="preserve">
<style type="text/css">
	.st0{fill:#FF1437;}
	.st1{fill:#FFFFFF;}
	.st2{fill:#EAFF00;}
	.st3{fill:#7D7D7D;}
	.st4{fill-rule:evenodd;clip-rule:evenodd;fill:#7D7D7D;}
	.st5{fill:url(#SVGID_1_);}
</style>
<g>
	<g>
		<path class="st3" d="M15,30C6.73,30,0,23.27,0,15C0,6.73,6.73,0,15,0c8.27,0,15,6.73,15,15C30,23.27,23.27,30,15,30z M15,1.61
			C7.62,1.61,1.61,7.62,1.61,15c0,7.38,6.01,13.39,13.39,13.39c7.38,0,13.39-6.01,13.39-13.39C28.39,7.62,22.38,1.61,15,1.61z"/>
	</g>
	<g>
		<g>
			<path class="st3" d="M23.62,9.53c-0.56,0.25-1.17,0.4-1.77,0.5c0.28-0.05,0.7-0.56,0.87-0.77c0.26-0.32,0.47-0.68,0.59-1.07
				c0.02-0.03,0.03-0.07,0-0.09c-0.04-0.02-0.06-0.01-0.09,0.01c-0.67,0.36-1.36,0.62-2.1,0.8c-0.06,0.02-0.11,0-0.14-0.04
				c-0.06-0.07-0.12-0.13-0.18-0.19c-0.31-0.26-0.64-0.47-1.02-0.62c-0.49-0.2-1.03-0.29-1.56-0.25c-0.52,0.03-1.02,0.18-1.48,0.42
				c-0.46,0.24-0.87,0.57-1.19,0.97c-0.34,0.42-0.59,0.91-0.71,1.43c-0.12,0.5-0.11,1-0.04,1.51c0.01,0.08,0,0.1-0.07,0.08
				c-2.88-0.43-5.27-1.46-7.21-3.67c-0.08-0.1-0.13-0.1-0.2,0.01c-0.85,1.27-0.44,3.31,0.62,4.32c0.14,0.13,0.29,0.27,0.44,0.39
				c-0.06,0.01-0.76-0.06-1.39-0.39c-0.08-0.05-0.13-0.02-0.13,0.07c-0.01,0.14,0,0.26,0.02,0.41c0.16,1.29,1.06,2.48,2.28,2.95
				c0.15,0.06,0.31,0.11,0.46,0.14c-0.28,0.06-0.57,0.1-1.36,0.04c-0.1-0.02-0.14,0.03-0.1,0.13c0.6,1.64,1.9,2.12,2.87,2.4
				c0.13,0.02,0.26,0.02,0.39,0.05c-0.01,0.01-0.02,0.01-0.02,0.02c-0.32,0.49-1.44,0.86-1.96,1.04c-0.95,0.33-1.97,0.48-2.97,0.38
				c-0.16-0.02-0.19-0.02-0.24,0c-0.04,0.03-0.01,0.07,0.05,0.11c0.2,0.13,0.41,0.25,0.62,0.37c0.63,0.34,1.3,0.6,1.99,0.79
				c3.57,0.99,7.59,0.26,10.28-2.4C21.26,17.28,22,14.4,22,11.51c0-0.11,0.13-0.18,0.21-0.24c0.55-0.41,0.98-0.9,1.39-1.45
				c0.09-0.12,0.09-0.23,0.09-0.28c0-0.01,0-0.02,0-0.02C23.69,9.48,23.69,9.49,23.62,9.53z"/>
		</g>
		<g>
			<path class="st4" d="M11.4,22.14C11.37,22.14,11.11,22.14,11.4,22.14C11.4,22.14,11.35,22.14,11.4,22.14z"/>
		</g>
		<g>
			<path class="st4" d="M11.98,22.15C11.98,22.12,12.29,22.15,11.98,22.15C11.98,22.14,12.02,22.15,11.98,22.15z"/>
		</g>
		<g>
			<path class="st4" d="M18.17,7.82c-0.02,0.02-0.05,0.02-0.07,0C18.12,7.82,18.15,7.82,18.17,7.82z"/>
		</g>
	</g>
</g>
</svg>
