<?xml version="1.0" encoding="utf-8"?>
<!-- Generator: Adobe Illustrator 23.0.3, SVG Export Plug-In . SVG Version: 6.00 Build 0)  -->
<svg version="1.1" id="Layer_1" xmlns="http://www.w3.org/2000/svg" xmlns:xlink="http://www.w3.org/1999/xlink" x="0px" y="0px"
	 viewBox="0 0 30 30" style="enable-background:new 0 0 30 30;" xml:space="preserve">
<style type="text/css">
	.st0{fill:#FF1437;}
	.st1{fill:#FFFFFF;}
	.st2{fill:#EAFF00;}
	.st3{fill:#7D7D7D;}
	.st4{fill-rule:evenodd;clip-rule:evenodd;fill:#7D7D7D;}
	.st5{fill:url(#SVGID_1_);}
</style>
<g>
	<g>
		<path class="st3" d="M15,30C6.73,30,0,23.27,0,15C0,6.73,6.73,0,15,0c8.27,0,15,6.73,15,15C30,23.27,23.27,30,15,30z M15,1.61
			C7.62,1.61,1.61,7.62,1.61,15c0,7.38,6.01,13.39,13.39,13.39c7.38,0,13.39-6.01,13.39-13.39C28.39,7.62,22.38,1.61,15,1.61z"/>
	</g>
	<g>
		<g>
			<path class="st3" d="M23.98,12.73c0-2.13-1.72-3.85-3.85-3.85h-9.99c-2.13,0-3.85,1.72-3.85,3.85v4.68
				c0,2.13,1.72,3.85,3.85,3.85h9.99c2.13,0,3.85-1.72,3.85-3.85V12.73z M17.68,15.3l-3.98,2.19c-0.17,0.09-0.33-0.03-0.33-0.23
				v-4.49c0-0.2,0.16-0.32,0.33-0.23l4.01,2.3C17.89,14.95,17.86,15.21,17.68,15.3z"/>
		</g>
	</g>
</g>
</svg>
