<?xml version="1.0" encoding="utf-8"?>
<!-- Generator: Adobe Illustrator 25.0.0, SVG Export Plug-In . SVG Version: 6.00 Build 0)  -->
<svg version="1.1" id="Слой_1" xmlns="http://www.w3.org/2000/svg" xmlns:xlink="http://www.w3.org/1999/xlink" x="0px" y="0px"
	 viewBox="0 0 32 31.94" style="enable-background:new 0 0 32 31.94;" xml:space="preserve">
<style type="text/css">
	.st0{fill:#7D7D7D;}
	.st1{fill:#EAFF00;}
</style>
<path class="st1" d="M26.78,11.96c-0.14-0.37-0.29-0.72-0.46-1.06l0.03,0.03l2.42-4.87L24.1,2.19l-4,3.05
	c-1.2-0.46-2.47-0.72-3.77-0.76l0.24-0.09L13.67,0L8.16,2.05L8.8,7.01C7.87,7.76,7.07,8.65,6.43,9.62L1.01,9.96L0,15.94l4.67,1.95
	c0.12,0.7,0.3,1.4,0.56,2.09c0.14,0.37,0.29,0.72,0.46,1.06l-0.03-0.03l-2.42,4.87l4.68,3.87l4-3.05c1.2,0.46,2.47,0.72,3.77,0.76
	l-0.24,0.09l2.91,4.39l5.51-2.05l-0.64-4.96c0.93-0.75,1.73-1.63,2.37-2.61l5.41-0.33L32,16l-4.67-1.95
	C27.21,13.35,27.03,12.65,26.78,11.96z M18.27,22.07c-3.37,1.25-7.12-0.46-8.37-3.83c-1.25-3.37,0.46-7.12,3.83-8.37
	c3.37-1.25,7.12,0.46,8.37,3.83C23.35,17.07,21.64,20.82,18.27,22.07z"/>
</svg>
