<svg id="Layer_1" data-name="Layer 1" xmlns="http://www.w3.org/2000/svg" viewBox="0 0 25.09 27.96"><defs><style>.cls-1{fill:#fff;}</style></defs><title>elements</title><path class="cls-1" d="M22.51,9.14a.87.87,0,0,1-.86-.8,9.14,9.14,0,0,0-18.21,0,.87.87,0,0,1-.86.8H.86A.87.87,0,0,0,0,10V27.09A.87.87,0,0,0,.86,28H24.22a.87.87,0,0,0,.87-.87V10a.87.87,0,0,0-.87-.87Zm-9,9.93v3.07a1,1,0,0,1-.64.94,1,1,0,0,1-1.27-.9V19.05a.82.82,0,0,0-.41-.71,2.52,2.52,0,1,1,2.7,0A.81.81,0,0,0,13.5,19.07ZM6.65,9.14a.87.87,0,0,1-.86-1,6.82,6.82,0,0,1,13.5,0,.86.86,0,0,1-.85,1Z"/></svg>