<svg id="Layer_1" data-name="Layer 1" xmlns="http://www.w3.org/2000/svg" xmlns:xlink="http://www.w3.org/1999/xlink" viewBox="0 0 56.01 17"><defs><style>.cls-1{fill:url(#linear-gradient);}.cls-2{fill:url(#linear-gradient-2);}.cls-3{fill:url(#linear-gradient-3);}</style><linearGradient id="linear-gradient" x1="28" y1="16.05" x2="28" gradientUnits="userSpaceOnUse"><stop offset="0" stop-color="#b11e2c"/><stop offset="0.07" stop-color="#b81f2d"/><stop offset="0.35" stop-color="#d62033"/><stop offset="0.6" stop-color="#e72238"/><stop offset="0.76" stop-color="#ed263a"/></linearGradient><linearGradient id="linear-gradient-2" x1="9.13" y1="17" x2="9.13" y2="8.58" xlink:href="#linear-gradient"/><linearGradient id="linear-gradient-3" x1="43.87" y1="17" x2="43.87" y2="8.58" xlink:href="#linear-gradient"/></defs><title>elements</title><path class="cls-1" d="M42.12,2.3a39.37,39.37,0,0,1,6.4,2.48l.33.15L49,5l.12,0a6.67,6.67,0,0,0,1.51.12h.2l1.59.16c.75.08,1.2.14,1.47.19a7.65,7.65,0,0,0,.68,3.61A4.84,4.84,0,0,1,55,11.51l-.16.25-.17.26v.32a1.36,1.36,0,0,1-.19.62,5.15,5.15,0,0,1-2.9.83,8.63,8.63,0,0,1-1.39-.22,7.11,7.11,0,0,0,0-.78,6.27,6.27,0,0,0-3-5.35,5.45,5.45,0,0,0-3.1-1h-.24a6.32,6.32,0,0,0-6.31,6.32,6,6,0,0,0,.26,1.78c-5.62,0-14.95.09-22.7.21a6.33,6.33,0,0,0-4.65-8.17c1.1-.13,2.69-.23,4-.3h0l4.7,0h.93c1.9,0,3.56,0,5.17.09,1.38,0,2.69.07,4,.07A45.32,45.32,0,0,0,40.65,5.09l.5-.12.21-.47a10.94,10.94,0,0,0,.42-1.2,8.63,8.63,0,0,1,.32-.95l0-.05m-37.38,6A6.29,6.29,0,0,0,3.21,15c-.53,0-.94,0-1.26-.05l.37-.14-.26-.93a4.41,4.41,0,0,1,.37-4A4.64,4.64,0,0,1,4.74,8.25M33.58,0C26.84,0,24.51,1.29,21,3.29c-1,.5-2.15,1.19-3.53,1.8-.87.09-6.73.26-8.29.69H9.06l-1.37.78c-.79.08-4.49.34-6.13,2.76a5.39,5.39,0,0,0-.51,4.83c-1.14.43-1,.87-1,1,.09.59.78.86,4.14.86H5a5.26,5.26,0,1,1,8.37-.19c8.49-.14,20-.22,26.06-.24a5.2,5.2,0,0,1-.84-2.83,5.27,5.27,0,0,1,5.26-5.27h.05l.19,0a4.35,4.35,0,0,1,2.52.81,5.25,5.25,0,0,1,2.51,4.47,5.3,5.3,0,0,1-.26,1.55,13.2,13.2,0,0,0,2.65.5c.26,0,2.68-.08,3.71-1.21a2.29,2.29,0,0,0,.43-1.29l.34-.52C56,7.63,54.89,9.67,54.89,5c0-.34,0-.52-2.42-.77L54,2.33h.59a1.79,1.79,0,0,0,1.3-.87c.26-.33,0-.59-.52-.59l-4.14.42a1.92,1.92,0,0,0-1.3.87c-.17.34,0,.6.52.6l1.3-.17L50.58,4.06A6.13,6.13,0,0,1,49.29,4,36.82,36.82,0,0,0,33.58,0ZM19.17,5.23l7.15-3.45a14.26,14.26,0,0,1,5.82-.9,39.68,39.68,0,0,1,9,1c-.24.52-.5,1.63-.74,2.15A44.45,44.45,0,0,1,29.27,5.39c-2.75,0-5.56-.17-9.16-.17Z"/><path class="cls-2" d="M9.13,9.63A3.16,3.16,0,1,1,6,12.79,3.16,3.16,0,0,1,9.13,9.63m0-1.05a4.21,4.21,0,1,0,4.21,4.21A4.21,4.21,0,0,0,9.13,8.58Z"/><path class="cls-3" d="M43.87,9.63a3.16,3.16,0,1,1-3.15,3.16,3.16,3.16,0,0,1,3.15-3.16m0-1.05a4.21,4.21,0,1,0,4.22,4.21,4.21,4.21,0,0,0-4.22-4.21Z"/></svg>