<?xml version="1.0" encoding="utf-8"?>
<!-- Generator: Adobe Illustrator 23.0.3, SVG Export Plug-In . SVG Version: 6.00 Build 0)  -->
<svg version="1.1" id="Layer_1" xmlns="http://www.w3.org/2000/svg" xmlns:xlink="http://www.w3.org/1999/xlink" x="0px" y="0px"
	 viewBox="0 0 30 30" style="enable-background:new 0 0 30 30;" xml:space="preserve">
<style type="text/css">
	.st0{fill:#FF1437;}
	.st1{fill:#FFFFFF;}
	.st2{fill:#EAFF00;}
	.st3{fill:#7D7D7D;}
	.st4{fill-rule:evenodd;clip-rule:evenodd;fill:#7D7D7D;}
	.st5{fill:url(#SVGID_1_);}
</style>
<g>
	<g>
		<path class="st3" d="M15,30C6.73,30,0,23.27,0,15C0,6.73,6.73,0,15,0c8.27,0,15,6.73,15,15C30,23.27,23.27,30,15,30z M15,1.61
			C7.62,1.61,1.61,7.62,1.61,15c0,7.38,6.01,13.39,13.39,13.39c7.38,0,13.39-6.01,13.39-13.39C28.39,7.62,22.38,1.61,15,1.61z"/>
	</g>
	<g>
		<path class="st4" d="M12.65,15.07v8.69c0,0.13,0.1,0.23,0.23,0.23h3.23c0.13,0,0.23-0.1,0.23-0.23v-8.84h2.34
			c0.12,0,0.22-0.09,0.23-0.21l0.23-2.66c0.01-0.13-0.09-0.25-0.23-0.25h-2.57V9.93c0-0.44,0.36-0.8,0.8-0.8h1.8
			c0.13,0,0.23-0.1,0.23-0.23V6.24c0-0.13-0.1-0.23-0.23-0.23h-3.05c-1.79,0-3.24,1.45-3.24,3.24v2.57h-1.61
			c-0.13,0-0.23,0.1-0.23,0.23v2.66c0,0.13,0.1,0.23,0.23,0.23h1.61V15.07z"/>
	</g>
</g>
</svg>
