<svg id="Layer_1" data-name="Layer 1" xmlns="http://www.w3.org/2000/svg" viewBox="0 0 76 76"><defs><style>.cls-1{fill:#58595b;}</style></defs><title>tuning_elements</title><circle class="cls-1" cx="37.91" cy="37.45" r="11.67" transform="translate(-2 2.14) rotate(-3.15)"/><path class="cls-1" d="M76,37.21l-1.83-10.9-8.39,1a29.48,29.48,0,0,0-5.93-9.83l4.46-6.93-9-6.41-5,6.36A29.33,29.33,0,0,0,38.9,7.8L37.21,0,26.31,1.83l1,7.93a29.42,29.42,0,0,0-9.91,6.3l-6.79-4.37-6.41,9,6.49,5.09A29.26,29.26,0,0,0,8.26,37L0,38.79l1.83,10.9,8.62-1a29.52,29.52,0,0,0,6,9.33l-4.8,7.46,9,6.41,5.58-7.12a29.57,29.57,0,0,0,10.59,2.37L38.79,76l10.9-1.83-1.1-9a29.31,29.31,0,0,0,9.23-5.7l7.61,4.89,6.41-9-7-5.48a29.44,29.44,0,0,0,2.67-10.78ZM41.11,56.5A19.32,19.32,0,1,1,57,34.24,19.33,19.33,0,0,1,41.11,56.5Z"/></svg>