<svg id="Layer_1" data-name="Layer 1" xmlns="http://www.w3.org/2000/svg" viewBox="0 0 102.91 70"><defs><style>.cls-1{fill:#58595b;}</style></defs><title>tuning_elements</title><path class="cls-1" d="M98.28,22.28H90.76V33H82.21V21.77h-6l.14-.2-7.73-7.73H58.2V8.75h6.92a4.38,4.38,0,0,0,0-8.75H36.63a4.38,4.38,0,1,0,0,8.75h9.15v5.09H34L22.59,21.77H15.67V33H8.75V26.15a4.39,4.39,0,0,0-4.37-4.38h0A4.39,4.39,0,0,0,0,26.15V54.64A4.39,4.39,0,0,0,4.37,59h0a4.39,4.39,0,0,0,4.37-4.37V43.55h6.92V59H26.25L41.72,70H82.21V43.55h8.55V59h7.52c2.56,0,4.63-8.22,4.63-18.36S100.84,22.28,98.28,22.28Z"/></svg>