<svg id="Layer_1" data-name="Layer 1" xmlns="http://www.w3.org/2000/svg" viewBox="0 0 80.9 76"><defs><style>.cls-1{fill:#fff;}</style></defs><title>tuning_elements</title><path class="cls-1" d="M53.47,21.56l-7.21,7.21,7.12,7.12c3.5-3.5,6.24-6.25,7.21-7.21,3.64-3.64,7.1-2.54,11.33-2.54s7.6-7.44,8.62-11.32-.43-5-.43-5L72,17.9a13.65,13.65,0,0,1-4.67-3.12,13.55,13.55,0,0,1-3.12-4.68L72.32,2s-1.1-1.43-5-.42S56,6,56,10.23,57.1,17.92,53.47,21.56Z"/><path class="cls-1" d="M28.64,60.63l12-12-7.12-7.12L21.52,53.51a11.56,11.56,0,1,0,7.12,7.12ZM21.53,71,20,73.1l-2.32-1-2.32,1L13.9,71l-2.53-.26-.27-2.53L9,66.76l1-2.33L9,62.11l2.06-1.49.27-2.53,2.53-.26,1.49-2.06,2.32,1,2.32-1,1.5,2.06,2.53.26.26,2.53,2.06,1.49-1,2.32,1,2.33-2.06,1.49-.26,2.53Z"/><path class="cls-1" d="M78.81,64,43,28.28,41,30.37l-12-12a14.29,14.29,0,0,1,2.89-7.74,19.54,19.54,0,0,1,9.23-6.58V.53C32.94-1.53,24.75,2.85,21.7,5.89s-7,6.92-7,6.92l.05,0-1,1a3.23,3.23,0,0,0-.53,3.95,7.64,7.64,0,0,1-2.11,3.83,7.75,7.75,0,0,1-3.77,2.1A3.27,3.27,0,0,0,3,24L.94,26.1a3.28,3.28,0,0,0,0,4.63l7.15,7.15a3.29,3.29,0,0,0,4.64,0l2.06-2.06a3.29,3.29,0,0,0,.26-4.3A7.87,7.87,0,0,1,21,25.67a3.21,3.21,0,0,0,3.34-.05L35,36.29l-2.09,2.09L68.7,74.15a3.34,3.34,0,0,0,4.72,0l5.39-5.39A3.34,3.34,0,0,0,78.81,64Z"/></svg>