<?xml version="1.0" encoding="utf-8"?>
<!-- Generator: Adobe Illustrator 23.0.3, SVG Export Plug-In . SVG Version: 6.00 Build 0)  -->
<svg version="1.1" id="Layer_1" xmlns="http://www.w3.org/2000/svg" xmlns:xlink="http://www.w3.org/1999/xlink" x="0px" y="0px"
	 viewBox="0 0 36 30.66" style="enable-background:new 0 0 36 30.66;" xml:space="preserve">
<style type="text/css">
	.st0{fill:#FF1437;}
	.st1{fill:#FFFFFF;}
	.st2{fill:#EAFF00;}
</style>
<g>
	<path class="st0" d="M15.42,1.45L0.44,26.07c-1.22,2.01,0.22,4.59,2.58,4.59h29.95c2.35,0,3.8-2.58,2.58-4.59L20.58,1.45
		C19.4-0.48,16.6-0.48,15.42,1.45z"/>
	<g>
		<path class="st1" d="M19.58,23.61c0,0.31-0.02,0.56-0.07,0.77c-0.05,0.21-0.13,0.38-0.26,0.5c-0.12,0.13-0.29,0.22-0.49,0.27
			c-0.2,0.06-0.45,0.08-0.76,0.08c-0.31,0-0.56-0.03-0.77-0.08c-0.2-0.06-0.37-0.15-0.49-0.27c-0.12-0.13-0.2-0.29-0.25-0.5
			c-0.05-0.21-0.07-0.47-0.07-0.77c0-0.31,0.02-0.58,0.07-0.79c0.05-0.21,0.13-0.38,0.25-0.51c0.12-0.13,0.28-0.22,0.49-0.28
			c0.2-0.06,0.46-0.08,0.77-0.08c0.31,0,0.56,0.03,0.76,0.08c0.2,0.06,0.36,0.15,0.49,0.28c0.12,0.13,0.21,0.3,0.26,0.51
			C19.55,23.04,19.58,23.3,19.58,23.61z M19.23,20.34c-0.01,0.07-0.03,0.14-0.07,0.2c-0.04,0.06-0.1,0.11-0.2,0.15
			c-0.09,0.04-0.22,0.07-0.38,0.09c-0.16,0.02-0.36,0.03-0.59,0.03c-0.24,0-0.44-0.01-0.59-0.03c-0.16-0.02-0.28-0.05-0.37-0.09
			c-0.09-0.04-0.16-0.09-0.2-0.15c-0.04-0.06-0.06-0.13-0.07-0.2l-0.29-10.15c0-0.1,0.02-0.18,0.07-0.26
			c0.04-0.07,0.12-0.14,0.24-0.18c0.12-0.05,0.27-0.08,0.47-0.11c0.2-0.02,0.45-0.03,0.74-0.03c0.3,0,0.54,0.01,0.74,0.04
			c0.19,0.03,0.35,0.06,0.46,0.11c0.12,0.05,0.2,0.11,0.25,0.18c0.05,0.07,0.07,0.15,0.07,0.25L19.23,20.34z"/>
	</g>
</g>
</svg>
