<svg id="Layer_1" data-name="Layer 1" xmlns="http://www.w3.org/2000/svg" xmlns:xlink="http://www.w3.org/1999/xlink" viewBox="0 0 648.52 126.93"><defs><style>.cls-1{fill:#191919;}.cls-2{fill:url(#linear-gradient);}.cls-3{fill:url(#linear-gradient-2);}.cls-4{fill:url(#linear-gradient-3);}.cls-5{fill:url(#linear-gradient-4);}.cls-6{fill:url(#linear-gradient-5);}.cls-7{fill:url(#linear-gradient-6);}</style><linearGradient id="linear-gradient" x1="845.89" y1="63.47" x2="845.89" gradientTransform="matrix(-1, 0, 0, 1, 892.1, 0)" gradientUnits="userSpaceOnUse"><stop offset="0" stop-color="#313131"/><stop offset="0.44" stop-color="#282828"/><stop offset="1" stop-color="#222"/></linearGradient><linearGradient id="linear-gradient-2" x1="745.47" y1="63.47" x2="745.47" y2="0" xlink:href="#linear-gradient"/><linearGradient id="linear-gradient-3" x1="618.05" y1="63.47" x2="618.05" y2="0" xlink:href="#linear-gradient"/><linearGradient id="linear-gradient-4" x1="517.63" y1="63.47" x2="517.63" y2="0" xlink:href="#linear-gradient"/><linearGradient id="linear-gradient-5" x1="390.21" y1="63.47" x2="390.21" y2="0" xlink:href="#linear-gradient"/><linearGradient id="linear-gradient-6" x1="289.79" y1="63.47" x2="289.79" y2="0" xlink:href="#linear-gradient"/></defs><title>timer_panel</title><polygon class="cls-1" points="0 126.93 78.38 126.93 92.42 113.48 92.42 0 13.75 0 0 14.04 0 126.93"/><polygon class="cls-2" points="13.75 0 92.42 0 92.42 63.47 0 63.47 0 14.04 13.75 0"/><polygon class="cls-1" points="100.42 126.93 178.8 126.93 192.84 113.48 192.84 0 114.17 0 100.42 14.04 100.42 126.93"/><polygon class="cls-3" points="114.17 0 192.84 0 192.84 63.47 100.42 63.47 100.42 14.04 114.17 0"/><polygon class="cls-1" points="227.84 126.93 306.22 126.93 320.26 113.48 320.26 0 241.59 0 227.84 14.04 227.84 126.93"/><polygon class="cls-4" points="241.59 0 320.26 0 320.26 63.47 227.84 63.47 227.84 14.04 241.59 0"/><polygon class="cls-1" points="328.26 126.93 406.64 126.93 420.68 113.48 420.68 0 342.01 0 328.26 14.04 328.26 126.93"/><polygon class="cls-5" points="342.01 0 420.68 0 420.68 63.47 328.26 63.47 328.26 14.04 342.01 0"/><polygon class="cls-1" points="455.68 126.93 534.06 126.93 548.1 113.48 548.1 0 469.43 0 455.68 14.04 455.68 126.93"/><polygon class="cls-6" points="469.43 0 548.1 0 548.1 63.47 455.68 63.47 455.68 14.04 469.43 0"/><polygon class="cls-1" points="556.1 126.93 634.48 126.93 648.52 113.48 648.52 0 569.85 0 556.1 14.04 556.1 126.93"/><polygon class="cls-7" points="569.85 0 648.52 0 648.52 63.47 556.1 63.47 556.1 14.04 569.85 0"/></svg>