<svg id="Layer_1" data-name="Layer 1" xmlns="http://www.w3.org/2000/svg" viewBox="0 0 37.52 27.96"><defs><style>.cls-1{fill:#fff;}</style></defs><title>elements</title><path class="cls-1" d="M36.65,9.14H19.08a.87.87,0,0,1-.86-.8A9.15,9.15,0,0,0,0,8.34c-.11,1.42,2,2,2.36-.19a6.82,6.82,0,0,1,13.5,0,.86.86,0,0,1-.85,1H13.29a.87.87,0,0,0-.86.87V27.09a.87.87,0,0,0,.86.87H36.65a.87.87,0,0,0,.87-.87V10A.87.87,0,0,0,36.65,9.14ZM26.31,18.36a.81.81,0,0,0-.38.71v3.08a1,1,0,0,1-.64.93,1,1,0,0,1-1.27-.9V19.05a.82.82,0,0,0-.41-.71,2.52,2.52,0,0,1,1.07-4.63,2.52,2.52,0,0,1,2.82,2.5A2.54,2.54,0,0,1,26.31,18.36Z"/></svg>