<svg id="Layer_1" data-name="Layer 1" xmlns="http://www.w3.org/2000/svg" xmlns:xlink="http://www.w3.org/1999/xlink" viewBox="0 0 21.52 25"><defs><style>.cls-1{fill:url(#linear-gradient);}.cls-2{fill:url(#linear-gradient-2);}</style><linearGradient id="linear-gradient" x1="10.82" y1="10.31" x2="10.82" gradientUnits="userSpaceOnUse"><stop offset="0" stop-color="#b11e2c"/><stop offset="0.07" stop-color="#b81f2d"/><stop offset="0.35" stop-color="#d62033"/><stop offset="0.6" stop-color="#e72238"/><stop offset="0.76" stop-color="#ed263a"/></linearGradient><linearGradient id="linear-gradient-2" x1="10.76" y1="25" x2="10.76" y2="9.02" xlink:href="#linear-gradient"/></defs><title>elements</title><path class="cls-1" d="M10.82,1.94A3.22,3.22,0,1,1,7.61,5.15a3.22,3.22,0,0,1,3.21-3.21m0-1.94A5.16,5.16,0,1,0,16,5.15,5.16,5.16,0,0,0,10.82,0Z"/><path class="cls-2" d="M18.43,11A1.17,1.17,0,0,1,19.58,12l-1.3,11h-15L1.94,12A1.18,1.18,0,0,1,3.09,11h1a8.72,8.72,0,0,0,13.47,0h.87m0-1.94H16.57A6.78,6.78,0,0,1,5.08,9h-2A3.1,3.1,0,0,0,0,12.11L1.52,25H20l1.52-12.89A3.1,3.1,0,0,0,18.43,9Z"/></svg>