<svg id="Layer_1" data-name="Layer 1" xmlns="http://www.w3.org/2000/svg" viewBox="0 0 76 76"><defs><style>.cls-1{fill:#fff;}</style></defs><title>tuning_elements</title><path class="cls-1" d="M75.65,43.13c0-.22.06-.45.08-.68.06-.52.11-1.05.15-1.58,0-.22,0-.43.05-.65,0-.73.07-1.47.07-2.22h0c0-.75,0-1.49-.07-2.22,0-.22,0-.43-.05-.65,0-.53-.09-1.06-.15-1.58,0-.23,0-.46-.08-.68-.08-.54-.16-1.08-.26-1.61,0-.18-.06-.36-.1-.54A37.92,37.92,0,0,0,62.85,9.27l-.11-.1a37.29,37.29,0,0,0-5.67-4l0,0a38,38,0,0,0-38,0l-.05,0a37.29,37.29,0,0,0-5.67,4l-.11.1A37.92,37.92,0,0,0,.71,30.72c0,.18-.07.36-.1.54-.1.53-.18,1.07-.26,1.61,0,.22-.06.45-.08.68-.06.52-.11,1.05-.15,1.58,0,.22,0,.43,0,.65C0,36.51,0,37.25,0,38H0c0,.75,0,1.49.07,2.22,0,.22,0,.43,0,.65,0,.53.09,1.06.15,1.58,0,.23,0,.46.08.68.08.54.16,1.08.26,1.61,0,.18.06.36.1.54A37.9,37.9,0,0,0,11.47,65.2h0c.54.53,1.09,1,1.67,1.53l.11.1a37.79,37.79,0,0,0,5.67,4l.05,0a37.92,37.92,0,0,0,8.73,3.69h0a38,38,0,0,0,20.58,0h0A37.92,37.92,0,0,0,57,70.89l0,0a37.79,37.79,0,0,0,5.67-4l.11-.1A37.92,37.92,0,0,0,75.29,45.28c0-.18.07-.36.1-.54C75.49,44.21,75.57,43.67,75.65,43.13Zm-4-12.42c-7.86,4.44-16.5,4-19.38-1s1.08-12.67,8.84-17.26A34.45,34.45,0,0,1,71.68,30.71Zm-23.85,15a1.77,1.77,0,1,1,2.42-.65A1.79,1.79,0,0,1,47.83,45.72ZM49.6,33.34a1.77,1.77,0,1,1,.65-2.41A1.77,1.77,0,0,1,49.6,33.34ZM48.53,5.18c-.09,9-4.77,16.31-10.53,16.31S27.56,14.21,27.47,5.18a34.43,34.43,0,0,1,21.06,0ZM38,46a8,8,0,1,1,8-8A8,8,0,0,1,38,46Zm1.77,4.42A1.77,1.77,0,1,1,38,48.6,1.77,1.77,0,0,1,39.77,50.37ZM36.23,25.63A1.77,1.77,0,1,1,38,27.4,1.77,1.77,0,0,1,36.23,25.63ZM25.75,45.07a1.77,1.77,0,1,1,2.42.65A1.77,1.77,0,0,1,25.75,45.07ZM28.82,32.7a1.77,1.77,0,1,1-.65-2.42A1.77,1.77,0,0,1,28.82,32.7Zm-14-20.22c7.76,4.59,11.72,12.28,8.84,17.26s-11.52,5.41-19.38,1A34.45,34.45,0,0,1,14.86,12.48ZM4.32,45.29c7.86-4.44,16.5-4,19.38,1s-1.08,12.67-8.84,17.26A34.45,34.45,0,0,1,4.32,45.29ZM27.47,70.82c.09-9,4.77-16.31,10.53-16.31s10.44,7.28,10.53,16.31a34.43,34.43,0,0,1-21.06,0Zm33.67-7.3c-7.76-4.59-11.72-12.28-8.84-17.26s11.52-5.41,19.38-1A34.45,34.45,0,0,1,61.14,63.52Z"/></svg>